<svg viewBox="0 0 32 32" fill="none" xmlns="http://www.w3.org/2000/svg">
  <rect width="32" height="32" fill="#1a311a"/>
  <!-- Basal leaves -->
  <path d="M16,30 C11,26 8,21 10,17 C13,19 15,24 16,28" stroke="white" stroke-width="0.7" fill="none" stroke-linecap="round"/>
  <path d="M16,30 C21,26 24,21 22,17 C19,19 17,24 16,28" stroke="white" stroke-width="0.7" fill="none" stroke-linecap="round"/>
  <!-- Stem -->
  <line x1="16" y1="27" x2="16" y2="3" stroke="white" stroke-width="0.6" stroke-linecap="round"/>
  <!-- Flower 1 -->
  <path d="M16,22 C13,20 9,20 7,22 C8,23.5 12,22.5 16,22.5" stroke="white" stroke-width="0.5" fill="none" stroke-linecap="round"/>
  <path d="M16,22 C19,20 23,20 25,22 C24,23.5 20,22.5 16,22.5" stroke="white" stroke-width="0.5" fill="none" stroke-linecap="round"/>
  <path d="M15,22 C14.5,20 15,18.5 16,18 C17,18.5 17.5,20 17,22" stroke="white" stroke-width="0.48" fill="none" stroke-linecap="round"/>
  <path d="M16,22.5 C15,24.5 14.5,26 14,27.5" stroke="white" stroke-width="0.4" fill="none" stroke-linecap="round"/>
  <!-- Flower 2 -->
  <path d="M16,16 C13,14 10,14 8,16 C9,17 12.5,16.5 16,16.5" stroke="white" stroke-width="0.46" fill="none" stroke-linecap="round"/>
  <path d="M16,16 C19,14 22,14 24,16 C23,17 19.5,16.5 16,16.5" stroke="white" stroke-width="0.46" fill="none" stroke-linecap="round"/>
  <path d="M15,16 C14.5,14 15,12.5 16,12 C17,12.5 17.5,14 17,16" stroke="white" stroke-width="0.44" fill="none" stroke-linecap="round"/>
  <path d="M16,16.5 C17,18 17.5,19.5 18,21" stroke="white" stroke-width="0.36" fill="none" stroke-linecap="round"/>
  <!-- Flower 3 -->
  <path d="M16,10.5 C13.5,9 11,9 9.5,10.5 C10.5,11.5 13,11 16,11" stroke="white" stroke-width="0.42" fill="none" stroke-linecap="round"/>
  <path d="M16,10.5 C18.5,9 21,9 22.5,10.5 C21.5,11.5 19,11 16,11" stroke="white" stroke-width="0.42" fill="none" stroke-linecap="round"/>
  <path d="M15.2,10.5 C15,8.5 15.5,7.5 16,7 C16.5,7.5 17,8.5 16.8,10.5" stroke="white" stroke-width="0.4" fill="none" stroke-linecap="round"/>
  <!-- Bud -->
  <path d="M16,5 C15,3.5 15,2 16,1.5 C17,2 17,3.5 16,5" stroke="white" stroke-width="0.38" fill="none" stroke-linecap="round"/>
</svg>
