<svg viewBox="0 0 32 32" fill="none" xmlns="http://www.w3.org/2000/svg">
  <rect width="32" height="32" fill="#1a311a"/>
  <svg x="7" y="1" width="18" height="30" viewBox="260 30 480 940">
    <g fill="none" stroke="white" stroke-width="28" stroke-linecap="round" stroke-linejoin="round">
      <path d="M 500,80 C 496,230 504,380 500,530 C 497,747.5 503,847.5 500,965"/>
      <path d="M 500,80 C 484,66 487,42 498,38 C 510,42 511,64 500,78"/>
      <path d="M 500.0,965.0 C 542.8,815.0 254.9,845.0 262.0,695.0"/>
      <path d="M 262.0,695.0 C 233.4,865.0 511.9,825.0 500.0,965.0"/>
      <path d="M 500.0,965.0 C 457.2,815.0 745.1,845.0 738.0,695.0"/>
      <path d="M 738.0,695.0 C 766.6,865.0 488.1,825.0 500.0,965.0"/>
      <path d="M 500,95 C 485.3,89.0 473.0,93.8 458.0,107.0"/>
      <path d="M 500,95 C 514.7,89.0 527.0,93.8 542.0,107.0"/>
      <path d="M 500,145 C 481.8,138.0 463.0,143.6 448.0,159.0"/>
      <path d="M 500,145 C 518.2,138.0 537.0,143.6 552.0,159.0"/>
      <path d="M 500,195 C 478.3,187.0 453.0,193.4 438.0,211.0"/>
      <path d="M 500,195 C 521.7,187.0 547.0,193.4 562.0,211.0"/>
      <path d="M 500,250 C 474.8,241.0 443.0,248.2 428.0,268.0"/>
      <path d="M 500,250 C 525.2,241.0 557.0,248.2 572.0,268.0"/>
      <path d="M 500,310 C 471.3,300.0 433.0,308.0 418.0,330.0"/>
      <path d="M 500,310 C 528.7,300.0 567.0,308.0 582.0,330.0"/>
      <path d="M 500,375 C 467.8,364.0 423.0,372.8 408.0,397.0"/>
      <path d="M 500,375 C 532.2,364.0 577.0,372.8 592.0,397.0"/>
      <path d="M 500,445 C 463.2,432.0 410.0,442.4 395.0,471.0"/>
      <path d="M 500,445 C 536.8,432.0 590.0,442.4 605.0,471.0"/>
      <path d="M 458.0,107.0 Q 447.4,104.9 443.9,96.4 Q 453.1,97.4 458.0,107.0 Z"/>
      <path d="M 458.0,107.0 Q 456.4,96.3 463.2,90.1 Q 465.3,99.1 458.0,107.0 Z"/>
      <circle cx="458.0" cy="107.0" r="8"/>
      <path d="M 542.0,107.0 Q 546.9,97.4 556.1,96.4 Q 552.6,104.9 542.0,107.0 Z"/>
      <path d="M 542.0,107.0 Q 540.7,97.6 546.8,92.2 Q 548.6,100.1 542.0,107.0 Z"/>
      <circle cx="542.0" cy="107.0" r="8"/>
      <path d="M 448.0,159.0 Q 436.2,156.6 432.3,147.1 Q 442.5,148.3 448.0,159.0 Z"/>
      <path d="M 448.0,159.0 Q 446.2,147.1 453.8,140.1 Q 456.2,150.2 448.0,159.0 Z"/>
      <circle cx="448.0" cy="159.0" r="9"/>
      <path d="M 552.0,159.0 Q 543.8,150.2 546.2,140.1 Q 553.8,147.1 552.0,159.0 Z"/>
      <path d="M 552.0,159.0 Q 552.5,172.6 544.8,181.1 Q 543.6,169.7 552.0,159.0 Z"/>
      <circle cx="552.0" cy="159.0" r="9"/>
      <path d="M 438.0,211.0 Q 425.0,208.4 420.6,197.9 Q 431.9,199.2 438.0,211.0 Z"/>
      <path d="M 438.0,211.0 Q 436.0,197.9 444.4,190.2 Q 447.0,201.2 438.0,211.0 Z"/>
      <circle cx="438.0" cy="211.0" r="10"/>
      <path d="M 562.0,211.0 Q 553.0,201.2 555.6,190.2 Q 564.0,197.9 562.0,211.0 Z"/>
      <path d="M 562.0,211.0 Q 562.5,226.0 554.1,235.3 Q 552.8,222.8 562.0,211.0 Z"/>
      <circle cx="562.0" cy="211.0" r="10"/>
      <path d="M 428.0,268.0 Q 413.8,265.2 409.0,253.7 Q 421.3,255.1 428.0,268.0 Z"/>
      <path d="M 428.0,268.0 Q 425.8,253.6 435.0,245.2 Q 437.9,257.3 428.0,268.0 Z"/>
      <circle cx="428.0" cy="268.0" r="11"/>
      <path d="M 572.0,268.0 Q 562.1,257.3 565.0,245.2 Q 574.2,253.6 572.0,268.0 Z"/>
      <path d="M 572.0,268.0 Q 572.6,284.4 563.3,294.6 Q 561.9,280.9 572.0,268.0 Z"/>
      <circle cx="572.0" cy="268.0" r="11"/>
      <path d="M 418.0,330.0 Q 402.5,326.9 397.4,314.4 Q 410.8,316.0 418.0,330.0 Z"/>
      <path d="M 418.0,330.0 Q 415.6,314.4 425.6,305.3 Q 428.7,318.4 418.0,330.0 Z"/>
      <circle cx="418.0" cy="330.0" r="12"/>
      <path d="M 582.0,330.0 Q 571.3,318.4 574.4,305.3 Q 584.4,314.4 582.0,330.0 Z"/>
      <path d="M 582.0,330.0 Q 582.6,347.8 572.6,358.9 Q 571.1,344.0 582.0,330.0 Z"/>
      <circle cx="582.0" cy="330.0" r="12"/>
      <path d="M 408.0,397.0 Q 391.3,393.7 385.7,380.2 Q 400.2,381.9 408.0,397.0 Z"/>
      <path d="M 408.0,397.0 Q 405.4,380.2 416.2,370.3 Q 419.5,384.5 408.0,397.0 Z"/>
      <circle cx="408.0" cy="397.0" r="13"/>
      <path d="M 592.0,397.0 Q 580.5,384.5 583.8,370.3 Q 594.6,380.2 592.0,397.0 Z"/>
      <path d="M 592.0,397.0 Q 592.7,416.2 581.9,428.2 Q 580.2,412.1 592.0,397.0 Z"/>
      <circle cx="592.0" cy="397.0" r="13"/>
      <path d="M 395.0,471.0 Q 377.1,467.4 371.1,453.0 Q 386.6,454.8 395.0,471.0 Z"/>
      <path d="M 395.0,471.0 Q 392.2,452.9 403.7,442.4 Q 407.4,457.6 395.0,471.0 Z"/>
      <circle cx="395.0" cy="471.0" r="14"/>
      <path d="M 605.0,471.0 Q 592.6,457.6 596.3,442.4 Q 607.8,452.9 605.0,471.0 Z"/>
      <path d="M 605.0,471.0 Q 605.7,491.6 594.1,504.5 Q 592.3,487.2 605.0,471.0 Z"/>
      <circle cx="605.0" cy="471.0" r="14"/>
    </g>
  </svg>
</svg>
